<svg preserveAspectRatio="none" width="100%" height="100%" overflow="visible" style="display: block;" viewBox="0 0 20.001 5" fill="none" xmlns="http://www.w3.org/2000/svg">
<g id="Group 9204">
<path id="Union" d="M17.7139 0C18.0627 0 18.3762 0.0528691 18.6533 0.158203C18.9351 0.263492 19.1743 0.416779 19.3701 0.618164C19.5708 0.819622 19.726 1.07186 19.8359 1.37402C19.9458 1.67162 20.001 2.01746 20.001 2.41113C20.001 2.94675 19.8978 3.40968 19.6924 3.79883C19.4917 4.18329 19.2097 4.48085 18.8467 4.69141C18.4836 4.89746 18.0556 5 17.5635 5C17.1097 4.99996 16.7153 4.90871 16.3809 4.72559C16.0513 4.53787 15.7958 4.26299 15.6143 3.90137C15.4328 3.53975 15.3418 3.09342 15.3418 2.5625C15.3418 2.13665 15.399 1.7629 15.5137 1.44238C15.6283 1.12186 15.7908 0.85612 16.001 0.645508C16.2112 0.430284 16.4604 0.27033 16.7471 0.165039C17.0383 0.0552148 17.3606 4.05916e-05 17.7139 0ZM2.25781 0C2.60637 2.25283e-05 2.92138 0.0484724 3.20312 0.144531C3.4898 0.240687 3.7339 0.387091 3.93457 0.583984C4.13516 0.780812 4.28845 1.02544 4.39355 1.31836C4.50342 1.60676 4.55857 1.94587 4.55859 2.33496C4.55859 2.87985 4.45545 3.33809 4.25 3.70898C4.04938 4.07975 3.76521 4.36141 3.39746 4.55371C3.03443 4.74138 2.60417 4.83492 2.10742 4.83496H0V4.34082L0.530273 4.19238V0.666992L0 0.529297V0.0341797L1.62695 0H2.25781ZM8.58691 1.23633H7.97754L7.86328 0.708008H6.48633V2.0332H8.02734V2.71289H6.48633V4.12793H7.95117L8.07031 3.54395H8.67969L8.66504 4.83496H4.93164V4.34082L5.46191 4.19238V0.666992L4.93164 0.529297V0.0341797L6.46484 0H8.58691V1.23633ZM15.0557 0.495117L14.5322 0.666992V4.19434L15.0557 4.34082V4.83496H13.0557V4.34082L13.5859 4.19336V1.34766L12.4248 3.57812L11.7803 3.61328L10.6689 1.34961V4.19922L11.2002 4.34082V4.83496H9.31445V4.34082L9.8457 4.19238V0.666016L9.31445 0.529297V0.0341797L11.0996 0L12.2227 2.49902L13.4004 0.0341797L15.0557 0V0.495117ZM17.6709 0.755859C17.4322 0.75592 17.2194 0.811069 17.0332 0.920898C16.8471 1.0308 16.7017 1.21364 16.5967 1.46973C16.4963 1.72605 16.4453 2.07877 16.4453 2.52734C16.4453 2.93932 16.4934 3.27163 16.5889 3.52344C16.6844 3.77072 16.8213 3.95416 16.998 4.07324C17.1795 4.18751 17.3943 4.24511 17.6426 4.24512C17.8814 4.24512 18.094 4.18989 18.2803 4.08008C18.4666 3.96563 18.6147 3.77759 18.7246 3.5166C18.8393 3.25106 18.8965 2.89624 18.8965 2.45215C18.8965 2.04006 18.8444 1.71013 18.7393 1.46289C18.6389 1.21126 18.4978 1.03082 18.3164 0.920898C18.1349 0.811009 17.9193 0.755859 17.6709 0.755859ZM1.55566 4.12793H2.15723C2.31012 4.12793 2.46332 4.10762 2.61621 4.06641C2.76904 4.02061 2.90707 3.93737 3.03125 3.81836C3.16023 3.69932 3.2634 3.52578 3.33984 3.29688C3.41626 3.06803 3.45407 2.76588 3.4541 2.39062C3.4541 2.02889 3.41835 1.73736 3.34668 1.51758C3.27507 1.29353 3.17983 1.12417 3.06055 1.00977C2.94119 0.890804 2.80717 0.810767 2.65918 0.769531C2.51584 0.728322 2.37185 0.707031 2.22852 0.707031H1.55566V4.12793Z" fill="var(--fill-0, white)"/>
</g>
</svg>
