<svg preserveAspectRatio="none" width="100%" height="100%" overflow="visible" style="display: block;" viewBox="0 0 8.20471 11" fill="none" xmlns="http://www.w3.org/2000/svg">
<g id="Icon">
<path fill-rule="evenodd" clip-rule="evenodd" d="M2.9027 0.121642C3.69425 -0.0405472 4.51046 -0.0405472 5.302 0.121642C5.64438 0.191795 5.90801 0.46585 5.96484 0.810686L5.99354 0.984832C6.23446 2.44668 6.23446 3.9381 5.99354 5.39995L5.96484 5.57409C5.90801 5.91893 5.64438 6.19298 5.302 6.26314C4.51046 6.42533 3.69425 6.42533 2.9027 6.26314C2.56033 6.19298 2.2967 5.91893 2.23987 5.57409L2.21117 5.39995C1.97024 3.9381 1.97024 2.44668 2.21117 0.984832L2.23987 0.810687C2.2967 0.465851 2.56033 0.191795 2.9027 0.121642ZM5.14262 0.899475C4.45624 0.758834 3.74847 0.758834 3.06208 0.899475C3.04205 0.903581 3.02662 0.919619 3.02329 0.9398L2.99459 1.11395C2.76776 2.49029 2.76776 3.89449 2.99459 5.27083L3.02329 5.44498C3.02662 5.46516 3.04205 5.4812 3.06208 5.4853C3.74847 5.62594 4.45624 5.62594 5.14262 5.4853C5.16266 5.4812 5.17809 5.46516 5.18141 5.44498L5.21011 5.27083C5.43694 3.89449 5.43694 2.49029 5.21011 1.11395L5.18141 0.9398C5.17809 0.919619 5.16266 0.903581 5.14262 0.899475Z" fill="var(--fill-0, #001C36)"/>
<path d="M0.341349 4.65197C0.558436 4.62121 0.759356 4.77226 0.790118 4.98935L1.02858 6.67224C1.09301 7.12693 1.45344 7.48245 1.90898 7.54064C3.36531 7.72666 4.8394 7.72666 6.29573 7.54064C6.75126 7.48245 7.11169 7.12693 7.17612 6.67224L7.41459 4.98935C7.44535 4.77226 7.64627 4.62121 7.86336 4.65197C8.08044 4.68274 8.23149 4.88366 8.20073 5.10074L7.96226 6.78364C7.84766 7.59239 7.20657 8.22474 6.39633 8.32823C5.76631 8.40871 5.13311 8.45589 4.49937 8.46979V10.603C4.49937 10.8223 4.32162 11 4.10237 11C3.88311 11 3.70537 10.8223 3.70537 10.603V8.46979C3.07161 8.45589 2.43841 8.40871 1.80838 8.32823C0.998131 8.22474 0.357044 7.59239 0.242444 6.78364L0.00397662 5.10074C-0.0267847 4.88366 0.124262 4.68274 0.341349 4.65197Z" fill="var(--fill-0, #001C36)"/>
</g>
</svg>
